# xmcd
#
# Track frame offsets:
#	182
#	4625
#	13805
#	28217
#	51195
#	73057
#	93557
#	108812
#	124542
#	134512
#	140790
#	147962
#	171120
#	188007
#	193540
#	203765
#	220812
#	233797
#	243925
#
# Disc length: 3408 seconds
#
# Revision: 2
# Processed by: cddbd v1.5.1PL0 Copyright (c) Steve Scherf et al.
# Submitted via: dBpowerAMP V4.0
#
DISCID=120d4e13
DTITLE=Leadbelly - Nobody Knows the Trouble I've Seen
DYEAR=1994
DGENRE=blues
TTITLE0=Ho Day
TTITLE1=One Dollar Bill Baby
TTITLE2=Ain't Goin' Down to the Well Anymore
TTITLE3=Shorty George
TTITLE4=Ha-ha Thisaway
TTITLE5=Where de Sun Go Down
TTITLE6=Bring Me Water,Silvy
TTITLE7=Monkey Man
TTITLE8=Ain't Gonna Ring Dem Yellow Woman's Do' Bells
TTITLE9=Rock Island Line
TTITLE10=Billy the Weaver
TTITLE11=Ain't Gonna Drink No More
TTITLE12=New York City
TTITLE13=The Hindenburg Disaster,Part 1
TTITLE14=The Hindenburg Disaster,Part 2
TTITLE15=Git on Board
TTITLE16=Outshine the Sun
TTITLE17=Nobody Knows the Trouble I've Seen
TTITLE18=Little John Henry
EXTD=added year - 1994
EXTT0=
EXTT1=
EXTT2=
EXTT3=
EXTT4=
EXTT5=
EXTT6=
EXTT7=
EXTT8=
EXTT9=
EXTT10=
EXTT11=
EXTT12=
EXTT13=
EXTT14=
EXTT15=
EXTT16=
EXTT17=
EXTT18=
PLAYORDER=
